<svg id="Layer_1" xmlns="http://www.w3.org/2000/svg" viewBox="0 0 164 75">
    <style>.st0{fill-rule:evenodd;clip-rule:evenodd;fill:#FDEBDD;}</style>
    <path class="st0" d="M137.5 23.1C130.7 9.5 114.4 0 95.5 0c-12 0-23 3.9-31.1 10.2-1.3-.1-2.6-.2-3.9-.2-15.2 0-28.4 7.3-34.6 18C11.6 28.1 0 37.7 0 49.5 0 61.4 11.6 71 26 71c4.6 0 8.9-1 12.6-2.7 6.2 3.6 13.8 5.7 21.9 5.7 5.5 0 10.7-1 15.4-2.7 5.9 2.3 12.6 3.7 19.6 3.7 9.7 0 18.7-2.5 26-6.7 4 1.8 8.6 2.7 13.5 2.7 16 0 29-10.7 29-24 0-12.6-11.6-22.8-26.5-23.9z"/>
</svg>
