<svg id="Layer_1" xmlns="http://www.w3.org/2000/svg" viewBox="0 0 164 75">
    <style>.st0{fill-rule:evenodd;clip-rule:evenodd;fill:#FDEBDD;}</style>
    <path class="st0" d="M26.5 23.1C33.3 9.5 49.6 0 68.5 0c12 0 23 3.9 31.1 10.2 1.3-.1 2.6-.2 3.9-.2 15.2 0 28.4 7.3 34.6 18 14.3.1 25.9 9.7 25.9 21.5 0 11.9-11.6 21.5-26 21.5-4.6 0-8.9-1-12.6-2.7-6.2 3.6-13.8 5.7-21.9 5.7-5.5 0-10.7-1-15.4-2.7-5.9 2.4-12.6 3.7-19.6 3.7-9.7 0-18.7-2.5-26-6.7C38.4 70 33.9 71 29 71 13 71 0 60.3 0 47c0-12.6 11.6-22.8 26.5-23.9z"/>
</svg>
