<svg id="Layer_1" xmlns="http://www.w3.org/2000/svg" xmlns:xlink="http://www.w3.org/1999/xlink" viewBox="0 0 29.6 44"><style>.st0{fill:#E1BE9B;} .st1{fill:#F1D1AC;} .st2{clip-path:url(#SVGID_2_);fill:#C09980;} .st3{fill:#D3A788;} .st4{fill:#C09980;} .st5{fill:#2CABE1;} .st6{fill:#070707;} .st7{fill:#F9F9F9;} .st8{fill:#DFB79A;} .st9{fill:#414141;} .st10{clip-path:url(#SVGID_4_);fill:#C09980;} .st11{fill:#E2E2E2;} .st12{fill:#AD2130;} .st13{fill:#371E14;} .st14{fill:#22120C;} .st15{fill:#050505;} .st16{fill:#404041;} .st17{opacity:0.7;fill:#C09980;} .st18{fill:#F5EFD6;} .st19{fill:#1F1F33;} .st20{fill:none;} .st21{fill:#1A1A1A;} .st22{fill:#928C44;} .st23{fill:#C6696F;} .st24{fill:#D87374;} .st25{fill:#5C4C52;} .st26{fill:#FFF100;} .st27{clip-path:url(#SVGID_6_);fill:#C09980;} .st28{fill:#462E16;} .st29{fill:#2B2829;} .st30{clip-path:url(#SVGID_8_);fill:#C09980;} .st31{fill:#432612;} .st32{fill:#502C15;} .st33{fill:#383838;} .st34{fill:#6B6B6B;} .st35{clip-path:url(#SVGID_10_);fill:#C09980;} .st36{fill:#2E3083;} .st37{fill:#222323;} .st38{fill:#231F20;} .st39{fill:#222255;} .st40{fill:#FFFFFF;} .st41{clip-path:url(#SVGID_12_);fill:#C09980;} .st42{clip-path:url(#SVGID_14_);fill:#C09980;} .st43{fill:#2A1F17;} .st44{fill:none;stroke:#231F20;stroke-width:0.5;stroke-miterlimit:10;} .st45{fill:#473325;} .st46{fill:#ED827C;} .st47{fill:#181818;} .st48{fill:#191818;} .st49{fill:#857095;} .st50{fill:#718FAF;} .st51{fill:#DEDEEF;} .st52{clip-path:url(#SVGID_16_);fill:#C09980;} .st53{clip-path:url(#SVGID_18_);fill:#C09980;} .st54{clip-path:url(#SVGID_20_);fill:#C09980;} .st55{fill:#AE7546;} .st56{fill:#CD926B;} .st57{fill:#563B20;} .st58{fill:#935D34;} .st59{fill:#332214;} .st60{fill:#DCAE8F;} .st61{fill:#267138;} .st62{fill:#F6ED83;} .st63{fill:#E77C7C;} .st64{fill:#694A25;} .st65{fill:#2B0F0F;} .st66{clip-path:url(#SVGID_22_);fill:#C09980;} .st67{fill:#C76A6F;} .st68{fill:#28160E;} .st69{fill:#3E2116;} .st70{fill:#27160F;} .st71{fill:#16374B;} .st72{fill:#4E1123;} .st73{clip-path:url(#SVGID_24_);fill:#C09980;} .st74{fill:#F7DF2F;} .st75{fill:#7C712D;} .st76{fill:#455BA8;} .st77{fill:#E1CF2A;} .st78{fill:#494A7D;} .st79{fill:#1E2859;} .st80{fill:#483417;} .st81{fill:#E6E7E8;} .st82{fill:#965458;} .st83{clip-path:url(#SVGID_26_);fill:#C09980;} .st84{fill:#DDDDDC;} .st85{fill:#7D494E;} .st86{fill:#182121;} .st87{clip-path:url(#SVGID_32_);fill:#C09980;} .st88{clip-path:url(#SVGID_38_);fill:#C09980;} .st89{fill:#D6868D;} .st90{fill:#0D0D10;} .st91{fill:#865823;} .st92{clip-path:url(#SVGID_40_);fill:#C09980;} .st93{fill:#B7854E;} .st94{fill:#A06D38;} .st95{fill:#44803C;} .st96{fill:#366933;} .st97{fill:#EADE59;} .st98{fill:#DFCF3F;} .st99{fill:#C52026;} .st100{clip-path:url(#SVGID_42_);fill:#C09980;} .st101{fill:#D3D3D3;} .st102{fill:#EFEFEF;} .st103{fill:#EDC01B;} .st104{clip-path:url(#SVGID_44_);fill:#C09980;} .st105{fill:#F1D0B3;} .st106{fill:#5AACC4;} .st107{fill:#3A4D80;} .st108{fill:#4A484A;} .st109{clip-path:url(#SVGID_46_);fill:#C09980;} .st110{fill:#F1F1F2;} .st111{clip-path:url(#SVGID_48_);fill:#C09980;} .st112{clip-path:url(#SVGID_50_);fill:#C09980;} .st113{fill:#2D3518;} .st114{fill:#1C263F;} .st115{clip-path:url(#SVGID_52_);fill:#C09980;} .st116{fill:#774C1E;} .st117{fill:#864F21;} .st118{fill:#174F3E;} .st119{fill:#103529;} .st120{fill:#FFF5F0;} .st121{fill:#606060;} .st122{fill:#393C3D;} .st123{fill:#DDB58E;} .st124{fill:#E0605C;}</style><defs><path id="SVGID_25_" d="M13 29.7l4.9-2.8V24L13 26.8z"/></defs><clipPath id="SVGID_2_"><use xlink:href="#SVGID_25_" overflow="visible"/></clipPath><path class="st2" d="M17.9 25.6c-.2.5-1 1.9-2.5 2.8-1.4.8-2.2.3-2.4.1 0-.3.1-.7.1-1 0-.2 0-.4.1-.6.7-.2 1.4-.6 2.2-1 .8-.5 1.6-1 2.3-1.6 0 .2 0 .4.1.6 0 .1 0 .4.1.7"/><path class="st3" d="M15.3 3.8C5.9 9.2 5.9 17.1 6.3 22c-.6-.9-2.6.6-2.4 2.5.2 1.8 2.8 1.2 2.8 1 .8 3.8 5.2 3.7 8.6 1.7h.1l-.1-23.4c.1 0 0 0 0 0"/><path class="st8" d="M15.4 3.8c9.4-5.4 9.5 2.4 9 7.8.6-1.6 2.6-2.3 2.4-.3-.2 1.9-2.8 4.5-2.8 4.2-.8 4.7-5.2 9.7-8.6 11.7h-.1l.1-23.4c-.1 0-.1 0 0 0"/><path class="st4" d="M26.2 10.8c-.5-.5-1.2.3-1.4.5-.2.3-.3.6-.2 1 .1.2.3.1.3.5-.1.5-.3.6-.4.8-.1.2-.2.3-.3.5-.1.2-.1.4 0 .6.1.3.5-.2.8-.5.2-.2.8-1.1 1-1.4.3-.7.5-1.7.2-2"/><path class="st0" d="M15.4 6c-3.1 1.8-5.4 4-6.7 6.6-1.9 3.6-1.8 7.3-1.1 9.6.1.7.2 2.8.4 3.6.7 3.3 4.7 2.9 7.4 1.4h.1L15.4 6c0-.1 0 0 0 0"/><path class="st1" d="M22.1 4.8c-1.4-1-3.6-.6-6.6 1.2v21.2c3-1.8 6.7-6 7.3-9.8.1-.9.3-3.2.5-4.2.6-3.2.7-7.1-1.2-8.4"/><defs><path id="SVGID_27_" d="M7.4 26.3l6.6-3.8v-5.6l-6.6 3.8z"/></defs><clipPath id="SVGID_4_"><use xlink:href="#SVGID_27_" overflow="visible"/></clipPath><defs><path id="SVGID_29_" d="M16.6 21l6.6-3.8v-5.6l-6.6 3.8z"/></defs><clipPath id="SVGID_6_"><use xlink:href="#SVGID_29_" overflow="visible"/></clipPath><path class="st6" d="M15.3 2.5c-9.8 5.6-10 14.9-9.5 19.8.2.1.4.2.6.5.2.4.4.2.4.2v-3.8c0-.8 2.3-6.7 3.8-8.1 1.5-1.4 2.9.7 4.6-.3l.1-.1.1-.1c1.7-1 3-4.6 4.6-5.1 1.5-.4 3.8 2.9 3.8 3.7V13s.1.1.4-.9c.1-.5.4-.8.6-1.1.4-5.1.2-14.2-9.5-8.5z"/><path class="st0" d="M15.4 21.8v16.4l-8.9 5.1h-.2c0-8.1 4.7-12 5.4-12.5.1 0 .1-.1.1-.1.5-.3.9-1.2 1.1-2.4 0-.2.1-.4.1-.6 0-.3.1-.7.1-1 0-.2 0-.4.1-.6.1-1 .1-2.2.1-3.2-.1 0 1.1-.6 2.1-1.1"/><path class="st1" d="M24.5 32.8l-.2.2-8.9 5.2V21.8c1-.6 2.2-1.4 2.2-1.4 0 1 0 2.1.1 3 0 .2 0 .4.1.6 0 .3.1.6.1.9 0 .1 0 .2.1.3.2 1 .6 1.5 1.2 1.2 0 0 .1 0 .2-.1 1-.3 5.1-1.2 5.1 6.5"/><path class="st84" d="M24.5 32.8l-.2.2L6.5 43.3h-.2c0-8.2 4.7-12.1 5.4-12.7 1.1.6 3.6 1.5 3.6 1.5s2.6-3.6 3.6-5.3c.1-.1.1-.2.2-.2.1-.2.2-.3.3-.4.2-.1.4-.1.7-.2h1.5c1.3.4 2.9 1.9 2.9 6.8"/><path class="st85" d="M7.2 37.5v5.4l.2-.1V37c-.1.2-.2.3-.2.5M8.3 34.8v7.4l.2-.1v-7.6c-.1.1-.2.2-.2.3M9.4 33v8.6l.2-.1v-8.7c-.1.1-.1.2-.2.2M10.7 31.6v9.3l.2-.1v-9.4c-.1.1-.2.1-.2.2M11.8 30.7v9.5l.2-.1v-9.4c-.1.1-.2 0-.2 0M13 31.3v8.3l.2-.1v-8.1c-.1-.1-.2-.1-.2-.1M14.1 31.7v7.2l.2-.1v-7.1h-.2M23.6 28v5.4l-.2.1v-5.8c.1.1.1.2.2.3M22.5 26.7v7.4l-.2.1v-7.6c.1 0 .1 0 .2.1M21.3 26.1v8.6l-.2.1v-8.7h.2M20.1 26.1v9.3l-.1.1v-9.4h.1M19 26.5V36l-.2.1v-9.4c.1 0 .1-.1.2-.2M17.8 28.5v8.3l-.2.1v-8.1c.1-.2.1-.2.2-.3M16.7 30.2v7.2l-.2.1v-7c.1-.1.1-.2.2-.3"/><path class="st86" d="M18.9 25.3c.1 0 1 1.4 1.1 1.7.2.3 0 1.5 0 1.5s-.1-.5-.5-.5c-.3 0-1.1.4-1.4.7-.3.3-1.7 2.2-1.9 2.5-.3.3-.5.8-.5.9V38l-.6.4v-5.9l.7-2.5 2.4-3.8s-.1-.5-.2-.6c0 0 .8-.4.9-.3"/><path class="st86" d="M11.8 29.3c-.1.1-1 2.5-1.1 3-.2.5 0 1.5 0 1.5s.1-.7.5-1c.3-.4 1.1-.9 1.4-.9.3 0 1.7.3 1.9.3.3 0 .5.2.5.3v5.9l.6-.4v-5.8l-.7-1.7-2.4-1s.1-.7.2-.8c0 0-.8.5-.9.6"/><path class="st84" d="M15.6 32.9c0 .1-.1.2-.2.3-.1.1-.2 0-.2-.1s.1-.2.2-.3c.1 0 .2 0 .2.1"/><defs><path id="SVGID_31_" d="M13 29.7l4.9-2.8V24L13 26.8z"/></defs><clipPath id="SVGID_8_"><use xlink:href="#SVGID_31_" overflow="visible"/></clipPath><path class="st30" d="M17.9 25.6c-.2.5-1 1.9-2.5 2.8-1.4.8-2.2.3-2.4.1 0-.3.1-.7.1-1 0-.2 0-.4.1-.6.7-.2 1.4-.6 2.2-1 .8-.5 1.6-1 2.3-1.6 0 .2 0 .4.1.6 0 .1 0 .4.1.7"/><path class="st3" d="M15.3 3.8C5.9 9.2 5.9 17.1 6.3 22c-.6-.9-2.6.6-2.4 2.5.2 1.8 2.8 1.2 2.8 1 .8 3.8 5.2 3.7 8.6 1.7h.1l-.1-23.4c.1 0 0 0 0 0"/><path class="st8" d="M15.4 3.8c9.4-5.4 9.5 2.4 9 7.8.6-1.6 2.6-2.3 2.4-.3-.2 1.9-2.8 4.5-2.8 4.2-.8 4.7-5.2 9.7-8.6 11.7h-.1l.1-23.4c-.1 0-.1 0 0 0"/><path class="st4" d="M26.2 10.8c-.5-.5-1.2.3-1.4.5-.2.3-.3.6-.2 1 .1.2.3.1.3.5-.1.5-.3.6-.4.8-.1.2-.2.3-.3.5-.1.2-.1.4 0 .6.1.3.5-.2.8-.5.2-.2.8-1.1 1-1.4.3-.7.5-1.7.2-2"/><path class="st0" d="M15.4 6c-3.1 1.8-5.4 4-6.7 6.6-1.9 3.6-1.8 7.3-1.1 9.6.1.7.2 2.8.4 3.6.7 3.3 4.7 2.9 7.4 1.4h.1L15.4 6c0-.1 0 0 0 0"/><path class="st1" d="M22.1 4.8c-1.4-1-3.6-.6-6.6 1.2v21.2c3-1.8 6.7-6 7.3-9.8.1-.9.3-3.2.5-4.2.6-3.2.7-7.1-1.2-8.4"/><defs><path id="SVGID_33_" d="M7.4 26.3l6.6-3.8v-5.6l-6.6 3.8z"/></defs><clipPath id="SVGID_10_"><use xlink:href="#SVGID_33_" overflow="visible"/></clipPath><defs><path id="SVGID_35_" d="M16.6 21l6.6-3.8v-5.6l-6.6 3.8z"/></defs><clipPath id="SVGID_12_"><use xlink:href="#SVGID_35_" overflow="visible"/></clipPath><path class="st6" d="M15.3 2.5c-9.8 5.6-10 14.9-9.5 19.8.2.1.4.2.6.5.2.4.4.2.4.2v-3.8c0-.8 2.3-6.7 3.8-8.1 1.5-1.4 2.9.7 4.6-.3l.1-.1.1-.1c1.7-1 3-4.6 4.6-5.1 1.5-.4 3.8 2.9 3.8 3.7V13s.1.1.4-.9c.1-.5.4-.8.6-1.1.4-5.1.2-14.2-9.5-8.5z"/><path class="st0" d="M15.4 21.8v16.4l-8.9 5.1h-.2c0-8.1 4.7-12 5.4-12.5.1 0 .1-.1.1-.1.5-.3.9-1.2 1.1-2.4 0-.2.1-.4.1-.6 0-.3.1-.7.1-1 0-.2 0-.4.1-.6.1-1 .1-2.2.1-3.2-.1 0 1.1-.6 2.1-1.1"/><path class="st1" d="M24.5 32.8l-.2.2-8.9 5.2V21.8c1-.6 2.2-1.4 2.2-1.4 0 1 0 2.1.1 3 0 .2 0 .4.1.6 0 .3.1.6.1.9 0 .1 0 .2.1.3.2 1 .6 1.5 1.2 1.2 0 0 .1 0 .2-.1 1-.3 5.1-1.2 5.1 6.5"/><path class="st84" d="M24.5 32.8l-.2.2L6.5 43.3h-.2c0-8.2 4.7-12.1 5.4-12.7 1.1.6 3.6 1.5 3.6 1.5s2.6-3.6 3.6-5.3c.1-.1.1-.2.2-.2.1-.2.2-.3.3-.4.2-.1.4-.1.7-.2h1.5c1.3.4 2.9 1.9 2.9 6.8"/><path class="st85" d="M7.2 37.5v5.4l.2-.1V37c-.1.2-.2.3-.2.5M8.3 34.8v7.4l.2-.1v-7.6c-.1.1-.2.2-.2.3M9.4 33v8.6l.2-.1v-8.7c-.1.1-.1.2-.2.2M10.7 31.6v9.3l.2-.1v-9.4c-.1.1-.2.1-.2.2M11.8 30.7v9.5l.2-.1v-9.4c-.1.1-.2 0-.2 0M13 31.3v8.3l.2-.1v-8.1c-.1-.1-.2-.1-.2-.1M14.1 31.7v7.2l.2-.1v-7.1h-.2M23.6 28v5.4l-.2.1v-5.8c.1.1.1.2.2.3M22.5 26.7v7.4l-.2.1v-7.6c.1 0 .1 0 .2.1M21.3 26.1v8.6l-.2.1v-8.7h.2M20.1 26.1v9.3l-.1.1v-9.4h.1M19 26.5V36l-.2.1v-9.4c.1 0 .1-.1.2-.2M17.8 28.5v8.3l-.2.1v-8.1c.1-.2.1-.2.2-.3M16.7 30.2v7.2l-.2.1v-7c.1-.1.1-.2.2-.3"/><path class="st86" d="M18.9 25.3c.1 0 1 1.4 1.1 1.7.2.3 0 1.5 0 1.5s-.1-.5-.5-.5c-.3 0-1.1.4-1.4.7-.3.3-1.7 2.2-1.9 2.5-.3.3-.5.8-.5.9V38l-.6.4v-5.9l.7-2.5 2.4-3.8s-.1-.5-.2-.6c0 0 .8-.4.9-.3"/><path class="st86" d="M11.8 29.3c-.1.1-1 2.5-1.1 3-.2.5 0 1.5 0 1.5s.1-.7.5-1c.3-.4 1.1-.9 1.4-.9.3 0 1.7.3 1.9.3.3 0 .5.2.5.3v5.9l.6-.4v-5.8l-.7-1.7-2.4-1s.1-.7.2-.8c0 0-.8.5-.9.6"/><path class="st84" d="M15.6 32.9c0 .1-.1.2-.2.3-.1.1-.2 0-.2-.1s.1-.2.2-.3c.1 0 .2 0 .2.1"/></svg>