<svg id="Layer_1" xmlns="http://www.w3.org/2000/svg" viewBox="0 0 34.6 49.2"><style>.st0{fill:#E1BE9B;} .st1{fill:#F1D1AC;} .st2{clip-path:url(#SVGID_2_);fill:#C09980;} .st3{fill:#D3A788;} .st4{fill:#C09980;} .st5{fill:#2CABE1;} .st6{fill:#070707;} .st7{fill:#F9F9F9;} .st8{fill:#DFB79A;} .st9{fill:#414141;} .st10{clip-path:url(#SVGID_4_);fill:#C09980;} .st11{fill:#E2E2E2;} .st12{fill:#AD2130;} .st13{fill:#371E14;} .st14{fill:#22120C;} .st15{fill:#050505;} .st16{fill:#404041;} .st17{opacity:0.7;fill:#C09980;} .st18{fill:#F5EFD6;} .st19{fill:#1F1F33;} .st20{fill:none;} .st21{fill:#1A1A1A;} .st22{fill:#928C44;} .st23{fill:#C6696F;} .st24{fill:#D87374;} .st25{fill:#5C4C52;} .st26{fill:#FFF100;} .st27{clip-path:url(#SVGID_6_);fill:#C09980;} .st28{fill:#462E16;} .st29{fill:#2B2829;} .st30{clip-path:url(#SVGID_8_);fill:#C09980;} .st31{fill:#432612;} .st32{fill:#502C15;} .st33{fill:#383838;} .st34{fill:#6B6B6B;} .st35{clip-path:url(#SVGID_10_);fill:#C09980;} .st36{fill:#2E3083;} .st37{fill:#222323;} .st38{fill:#231F20;} .st39{fill:#222255;} .st40{fill:#FFFFFF;} .st41{clip-path:url(#SVGID_12_);fill:#C09980;} .st42{clip-path:url(#SVGID_14_);fill:#C09980;} .st43{fill:#2A1F17;} .st44{fill:none;stroke:#231F20;stroke-width:0.5;stroke-miterlimit:10;} .st45{fill:#473325;} .st46{fill:#ED827C;} .st47{fill:#181818;} .st48{fill:#191818;} .st49{fill:#857095;} .st50{fill:#718FAF;} .st51{fill:#DEDEEF;} .st52{clip-path:url(#SVGID_16_);fill:#C09980;} .st53{clip-path:url(#SVGID_18_);fill:#C09980;} .st54{clip-path:url(#SVGID_20_);fill:#C09980;} .st55{fill:#AE7546;} .st56{fill:#CD926B;} .st57{fill:#563B20;} .st58{fill:#935D34;} .st59{fill:#332214;} .st60{fill:#DCAE8F;} .st61{fill:#267138;} .st62{fill:#F6ED83;} .st63{fill:#E77C7C;} .st64{fill:#694A25;} .st65{fill:#2B0F0F;} .st66{clip-path:url(#SVGID_22_);fill:#C09980;} .st67{fill:#C76A6F;} .st68{fill:#28160E;} .st69{fill:#3E2116;} .st70{fill:#27160F;} .st71{fill:#16374B;} .st72{fill:#4E1123;} .st73{clip-path:url(#SVGID_24_);fill:#C09980;} .st74{fill:#F7DF2F;} .st75{fill:#7C712D;} .st76{fill:#455BA8;} .st77{fill:#E1CF2A;} .st78{fill:#494A7D;} .st79{fill:#1E2859;} .st80{fill:#483417;} .st81{fill:#E6E7E8;} .st82{fill:#965458;} .st83{clip-path:url(#SVGID_26_);fill:#C09980;} .st84{fill:#DDDDDC;} .st85{fill:#7D494E;} .st86{fill:#182121;} .st87{clip-path:url(#SVGID_32_);fill:#C09980;} .st88{clip-path:url(#SVGID_38_);fill:#C09980;} .st89{fill:#D6868D;} .st90{fill:#0D0D10;} .st91{fill:#865823;} .st92{clip-path:url(#SVGID_40_);fill:#C09980;} .st93{fill:#B7854E;} .st94{fill:#A06D38;} .st95{fill:#44803C;} .st96{fill:#366933;} .st97{fill:#EADE59;} .st98{fill:#DFCF3F;} .st99{fill:#C52026;} .st100{clip-path:url(#SVGID_42_);fill:#C09980;} .st101{fill:#D3D3D3;} .st102{fill:#EFEFEF;} .st103{fill:#EDC01B;} .st104{clip-path:url(#SVGID_44_);fill:#C09980;} .st105{fill:#F1D0B3;} .st106{fill:#5AACC4;} .st107{fill:#3A4D80;} .st108{fill:#4A484A;} .st109{clip-path:url(#SVGID_46_);fill:#C09980;} .st110{fill:#F1F1F2;} .st111{clip-path:url(#SVGID_48_);fill:#C09980;} .st112{clip-path:url(#SVGID_50_);fill:#C09980;} .st113{fill:#2D3518;} .st114{fill:#1C263F;} .st115{clip-path:url(#SVGID_52_);fill:#C09980;} .st116{fill:#774C1E;} .st117{fill:#864F21;} .st118{fill:#174F3E;} .st119{fill:#103529;} .st120{fill:#FFF5F0;} .st121{fill:#606060;} .st122{fill:#393C3D;} .st123{fill:#DDB58E;} .st124{fill:#E0605C;}</style><path class="st43" d="M18.4 17.5c-1.4.8-2.6 2.3-3.6 4.1-1-1-2.4-1.2-4-.3-3.1 1.8-5.6 7-5.6 11.7 0 4.7 2.5 7 5.6 5.2 1.4-.8 2.6-2.3 3.6-4.1 1 1 2.4 1.2 4 .3 3.1-1.8 5.6-7 5.6-11.7-.1-4.6-2.5-6.9-5.6-5.2z"/><path class="st0" d="M15.2 25.6v16.9L6 47.8h-.2c0-2.5.4-4.6 1.1-6.4 1-2.9 2.6-4.8 3.6-5.7.6-.6 1-.9 1-.9l.1-.1c.5-.4.8-1.3 1-2.4 0-.2.1-.4.1-.6.1-.3.1-.7.1-1.1 0-.2 0-.4.1-.7.1-1.1.1-2.2.1-3.3 0 .2 1.2-.4 2.2-1z"/><path class="st1" d="M24.6 37l-.2.2-9.2 5.3V25.6c1-.6 2.2-1.4 2.2-1.4 0 1.1 0 2.2.1 3.1 0 .2 0 .4.1.6 0 .3.1.6.1.9 0 .1 0 .2.1.4.2.8.5 1.4.9 1.4h.1c.1 0 .1 0 .2-.1 0 0 2.8-1.3 4.5 1.2.7 1 1.1 2.6 1.1 5.3z"/><path class="st17" d="M17.7 28.9c-.2.5-1 2-2.5 2.9-1.5.8-2.3.3-2.5.1.1-.3.1-.7.1-1.1 0-.2 0-.4.1-.7.7-.2 1.5-.6 2.3-1 .8-.5 1.6-1.1 2.4-1.7 0 .2 0 .4.1.6v.9z"/><path class="st3" d="M15.2 7.5C5.6 13 5.6 20.7 6 25.5c-.7-.8-2.6.8-2.4 2.6.2 1.7 2.9 1 2.9.8.8 3.6 5.3 3.3 8.8 1.6h.1c-.1-7.7-.1-15.4-.2-23z"/><path class="st4" d="M4 27c.5-1 1.2-1.1 1.4-1.1.2.1.3.2.2.7-.1.3-.3.5-.3.8.1.4.3.3.4.3.1 0 .3 0 .3.2.1.1.1.3 0 .5-.1.3-.5.4-.8.4-.2 0-.8-.1-1-.2-.3-.2-.5-.9-.2-1.6z"/><path class="st8" d="M15.2 7.5c9.6-5.5 9.6 2.1 9.2 7.4.7-1.6 2.6-2.2 2.4-.3-.2 1.9-2.9 4.3-2.9 4.1-.8 4.5-5.3 9.4-8.8 11.8H15c.2-7.7.2-15.3.2-23z"/><path class="st4" d="M26.5 14c-.5-.5-1.2.3-1.4.6-.2.3-.3.6-.2 1 .1.2.3.1.3.5-.1.5-.3.6-.4.8-.1.2-.3.3-.3.5-.1.2-.1.4 0 .5.1.3.5-.2.8-.6.2-.2.8-1.1 1-1.4.3-.6.5-1.6.2-1.9z"/><path class="st0" d="M15.1 9.7c-3.2 1.8-5.5 4.1-7 6.6-2 3.6-1.9 7.2-1.2 9.5.2.7.3 2.8.5 3.5.7 3.2 4.9 2.7 7.6 1.1h.1V9.7c.1 0 .1 0 0 0z"/><path class="st1" d="M22.1 8.3c-1.4-.9-3.7-.5-6.9 1.3v20.8c3.1-1.9 6.9-6.1 7.6-9.9.2-.9.3-3.2.5-4.1.7-3 .8-6.8-1.2-8.1z"/><path class="st23" d="M16.8 26.3s-.7 1.2-1.6 1.7c-.9.5-1.6.2-1.6.2s.7-.5 1.6-1c.9-.6 1.6-.9 1.6-.9z"/><path class="st24" d="M15.7 26.6c-.3.1-.5.4-.5.6 0-.2-.2-.2-.5-.1s-1.2 1-1.2 1 .9-.4 1.1-.6c.3-.1.5-.2.5-.4 0 .2.2 0 .4-.1.3-.1 1.2-.8 1.2-.8s-.8.2-1 .4z"/><path class="st65" d="M22.3 29.6c-1.2.1-2.7.6-2.6.7.8.7.5 1.8.4 3.5-.2 2.6-1.8 3-4.9 4.7-3 1.8-4.7 3.3-4.9.9-.1-1.5-.4-2.3.4-3.9.1-.2-1.4 1-2.6 2.3-1.2 1.3-2.2 2.7-2.2 2.7s.9-.2 1.3.7c.2.5.3 1.4.4 2.3.1 1.9 1.1 2.2 1 2.8l6.6-3.8 6.6-3.8c-.1-.6.9-2 1-4.1.1-1 .2-2.1.4-2.8.4-1.4 1.3-2.2 1.3-2.2s-1-.2-2.2 0z"/><g><path class="st20" d="M11.5 22.4c-.3.1-.7.3-1.1.6.4-.3.7-.5 1.1-.6.5-.2 1.9-.7 2-.3.1.4.2 1 0 1.7-.5 2.5-2.2 4-3.5 4.7 1.3-.8 3.1-2.3 3.5-4.8.1-.8.1-1.3 0-1.7-.1-.4-1.4.1-2 .4zM16.7 21.9c-.2-.6-.1-1.2 0-1.8.1-.6 1.5-1.6 2.1-2.1.3-.2.6-.4 1.1-.7-.4.2-.8.5-1.1.7-.6.4-1.9 1.5-2.1 2.1-.1.7-.1 1.2 0 1.8.4 1.9 2.2 1.4 3.5.7-1.3.7-3 1.2-3.5-.7z"/></g><path class="st45" d="M13.6 13.8c-1.4 3.4-1.3 2.9-3 6.5S6.9 29 6.8 31.4c-.4 7.6 3.3 9.7 3.3 9.7s-3.7.1-3.8-1.6c-.1-1.7 1.7.2 1.1 1.7-1.3 3.1.5 4.1.5 4.1s-2.5.8-2.9-1.1c-.4-1.9.2-2.1.3-1.8.3 1.7-1.5 4-1.5 4s.9-2.1-.1-6.5c-.4-2-.5-3.2-.5-6.2C3.2 30.6-.4 15 14.4 4.3c.4-.3 1.5-.9 1.7-1 .2-.1 12.2-6.8 11.4 8-.3 5.5 0 12.1.5 13 .5.9-1-.9-1.1-1.4l-.8-2s.6 1.4.5 3.5c-.1 1.6-1.6 6-1.6 7 0 2.3.7 3.1.7 3.1s-1.3.1-1.5-1.1c-.3-1.2.2-2.4.2-2.4s0 1.4-.9 3.7c-.6 1.7-1.4 2.6-1.4 2.6s1.1-2.5.9-3.6c-.1-.6-.9-2.6-.9-3.6s.5-3.2.5-3.2.2 2-.5 3.8c-.9 2.2-1.9 3.5-1.9 3.5s1.7-3.5 1.9-7.3c0-.6.7-4.3.8-4.6.1-.2.7-4 .5-5-.2-1-1.7-4.5-1.7-4.5s-.4.9-.7 1.3c-1 1.4-1.5 1.5-1.5 1.5s.4-.9.6-1.8c.1-.4.1-1 .1-1s0 .6-1 2.1c-.5.7-1.3 1.6-1.3 1.6s1-1.9 1-3.3-.6-2.7-.6-2.7.9.8.7 1.8c-.2 1.1-.1 1.1-.7 2.2-1 1.8-2.1 3-2.1 3s1.1-2.1 1.1-3.9v-1.9s-.1 1.1-1 3.3c-.7 1.7-2.2 3.3-2.2 3.3s.7-1.1 1.3-3.3c.3-1.2.3-3.2.3-3.2s.1 2-1 3.8c-2.1 3.3-4.5 5.8-4.5 5.8l3.4-7.6z"/><path class="st43" d="M18.4 17.5c-1.4.8-2.6 2.3-3.6 4.1-1-1-2.4-1.2-4-.3-3.1 1.8-5.6 7-5.6 11.7 0 4.7 2.5 7 5.6 5.2 1.4-.8 2.6-2.3 3.6-4.1 1 1 2.4 1.2 4 .3 3.1-1.8 5.6-7 5.6-11.7-.1-4.6-2.5-6.9-5.6-5.2z"/><g><path class="st0" d="M15.2 25.6v16.9L6 47.8h-.2c0-2.5.4-4.6 1.1-6.4 1-2.9 2.6-4.8 3.6-5.7.6-.6 1-.9 1-.9l.1-.1c.5-.4.8-1.3 1-2.4 0-.2.1-.4.1-.6.1-.3.1-.7.1-1.1 0-.2 0-.4.1-.7.1-1.1.1-2.2.1-3.3 0 .2 1.2-.4 2.2-1z"/><path class="st1" d="M24.6 37l-.2.2-9.2 5.3V25.6c1-.6 2.2-1.4 2.2-1.4 0 1.1 0 2.2.1 3.1 0 .2 0 .4.1.6 0 .3.1.6.1.9 0 .1 0 .2.1.4.2.8.5 1.4.9 1.4h.1c.1 0 .1 0 .2-.1 0 0 2.8-1.3 4.5 1.2.7 1 1.1 2.6 1.1 5.3z"/><path class="st17" d="M17.7 28.9c-.2.5-1 2-2.5 2.9-1.5.8-2.3.3-2.5.1.1-.3.1-.7.1-1.1 0-.2 0-.4.1-.7.7-.2 1.5-.6 2.3-1 .8-.5 1.6-1.1 2.4-1.7 0 .2 0 .4.1.6v.9z"/><path class="st3" d="M15.2 7.5C5.6 13 5.6 20.7 6 25.5c-.7-.8-2.6.8-2.4 2.6.2 1.7 2.9 1 2.9.8.8 3.6 5.3 3.3 8.8 1.6h.1c-.1-7.7-.1-15.4-.2-23z"/><path class="st4" d="M4 27c.5-1 1.2-1.1 1.4-1.1.2.1.3.2.2.7-.1.3-.3.5-.3.8.1.4.3.3.4.3.1 0 .3 0 .3.2.1.1.1.3 0 .5-.1.3-.5.4-.8.4-.2 0-.8-.1-1-.2-.3-.2-.5-.9-.2-1.6z"/><path class="st8" d="M15.2 7.5c9.6-5.5 9.6 2.1 9.2 7.4.7-1.6 2.6-2.2 2.4-.3-.2 1.9-2.9 4.3-2.9 4.1-.8 4.5-5.3 9.4-8.8 11.8H15c.2-7.7.2-15.3.2-23z"/><path class="st4" d="M26.5 14c-.5-.5-1.2.3-1.4.6-.2.3-.3.6-.2 1 .1.2.3.1.3.5-.1.5-.3.6-.4.8-.1.2-.3.3-.3.5-.1.2-.1.4 0 .5.1.3.5-.2.8-.6.2-.2.8-1.1 1-1.4.3-.6.5-1.6.2-1.9z"/><path class="st0" d="M15.1 9.7c-3.2 1.8-5.5 4.1-7 6.6-2 3.6-1.9 7.2-1.2 9.5.2.7.3 2.8.5 3.5.7 3.2 4.9 2.7 7.6 1.1h.1V9.7c.1 0 .1 0 0 0z"/><path class="st1" d="M22.1 8.3c-1.4-.9-3.7-.5-6.9 1.3v20.8c3.1-1.9 6.9-6.1 7.6-9.9.2-.9.3-3.2.5-4.1.7-3 .8-6.8-1.2-8.1z"/><path class="st23" d="M16.8 26.3s-.7 1.2-1.6 1.7c-.9.5-1.6.2-1.6.2s.7-.5 1.6-1c.9-.6 1.6-.9 1.6-.9z"/><path class="st24" d="M15.7 26.6c-.3.1-.5.4-.5.6 0-.2-.2-.2-.5-.1s-1.2 1-1.2 1 .9-.4 1.1-.6c.3-.1.5-.2.5-.4 0 .2.2 0 .4-.1.3-.1 1.2-.8 1.2-.8s-.8.2-1 .4z"/><path class="st65" d="M22.3 29.6c-1.2.1-2.7.6-2.6.7.8.7.5 1.8.4 3.5-.2 2.6-1.8 3-4.9 4.7-3 1.8-4.7 3.3-4.9.9-.1-1.5-.4-2.3.4-3.9.1-.2-1.4 1-2.6 2.3-1.2 1.3-2.2 2.7-2.2 2.7s.9-.2 1.3.7c.2.5.3 1.4.4 2.3.1 1.9 1.1 2.2 1 2.8l6.6-3.8 6.6-3.8c-.1-.6.9-2 1-4.1.1-1 .2-2.1.4-2.8.4-1.4 1.3-2.2 1.3-2.2s-1-.2-2.2 0z"/><g><path class="st20" d="M11.5 22.4c-.3.1-.7.3-1.1.6.4-.3.7-.5 1.1-.6.5-.2 1.9-.7 2-.3.1.4.2 1 0 1.7-.5 2.5-2.2 4-3.5 4.7 1.3-.8 3.1-2.3 3.5-4.8.1-.8.1-1.3 0-1.7-.1-.4-1.4.1-2 .4zM16.7 21.9c-.2-.6-.1-1.2 0-1.8.1-.6 1.5-1.6 2.1-2.1.3-.2.6-.4 1.1-.7-.4.2-.8.5-1.1.7-.6.4-1.9 1.5-2.1 2.1-.1.7-.1 1.2 0 1.8.4 1.9 2.2 1.4 3.5.7-1.3.7-3 1.2-3.5-.7z"/></g></g><path class="st45" d="M13.6 13.8c-1.4 3.4-1.3 2.9-3 6.5S6.9 29 6.8 31.4c-.4 7.6 3.3 9.7 3.3 9.7s-3.7.1-3.8-1.6c-.1-1.7 1.7.2 1.1 1.7-1.3 3.1.5 4.1.5 4.1s-2.5.8-2.9-1.1c-.4-1.9.2-2.1.3-1.8.3 1.7-1.5 4-1.5 4s.9-2.1-.1-6.5c-.4-2-.5-3.2-.5-6.2C3.2 30.6-.4 15 14.4 4.3c.4-.3 1.5-.9 1.7-1 .2-.1 12.2-6.8 11.4 8-.3 5.5 0 12.1.5 13 .5.9-1-.9-1.1-1.4l-.8-2s.6 1.4.5 3.5c-.1 1.6-1.6 6-1.6 7 0 2.3.7 3.1.7 3.1s-1.3.1-1.5-1.1c-.3-1.2.2-2.4.2-2.4s0 1.4-.9 3.7c-.6 1.7-1.4 2.6-1.4 2.6s1.1-2.5.9-3.6c-.1-.6-.9-2.6-.9-3.6s.5-3.2.5-3.2.2 2-.5 3.8c-.9 2.2-1.9 3.5-1.9 3.5s1.7-3.5 1.9-7.3c0-.6.7-4.3.8-4.6.1-.2.7-4 .5-5-.2-1-1.7-4.5-1.7-4.5s-.4.9-.7 1.3c-1 1.4-1.5 1.5-1.5 1.5s.4-.9.6-1.8c.1-.4.1-1 .1-1s0 .6-1 2.1c-.5.7-1.3 1.6-1.3 1.6s1-1.9 1-3.3-.6-2.7-.6-2.7.9.8.7 1.8c-.2 1.1-.1 1.1-.7 2.2-1 1.8-2.1 3-2.1 3s1.1-2.1 1.1-3.9v-1.9s-.1 1.1-1 3.3c-.7 1.7-2.2 3.3-2.2 3.3s.7-1.1 1.3-3.3c.3-1.2.3-3.2.3-3.2s.1 2-1 3.8c-2.1 3.3-4.5 5.8-4.5 5.8l3.4-7.6z"/></svg>