<svg id="Layer_1" xmlns="http://www.w3.org/2000/svg" viewBox="0 0 32.2 50"><style>.st0{fill:#E1BE9B;} .st1{fill:#F1D1AC;} .st2{clip-path:url(#SVGID_2_);fill:#C09980;} .st3{fill:#D3A788;} .st4{fill:#C09980;} .st5{fill:#2CABE1;} .st6{fill:#070707;} .st7{fill:#F9F9F9;} .st8{fill:#DFB79A;} .st9{fill:#414141;} .st10{clip-path:url(#SVGID_4_);fill:#C09980;} .st11{fill:#E2E2E2;} .st12{fill:#AD2130;} .st13{fill:#371E14;} .st14{fill:#22120C;} .st15{fill:#050505;} .st16{fill:#404041;} .st17{opacity:0.7;fill:#C09980;} .st18{fill:#F5EFD6;} .st19{fill:#1F1F33;} .st20{fill:none;} .st21{fill:#1A1A1A;} .st22{fill:#928C44;} .st23{fill:#C6696F;} .st24{fill:#D87374;} .st25{fill:#5C4C52;} .st26{fill:#FFF100;} .st27{clip-path:url(#SVGID_6_);fill:#C09980;} .st28{fill:#462E16;} .st29{fill:#2B2829;} .st30{clip-path:url(#SVGID_8_);fill:#C09980;} .st31{fill:#432612;} .st32{fill:#502C15;} .st33{fill:#383838;} .st34{fill:#6B6B6B;} .st35{clip-path:url(#SVGID_10_);fill:#C09980;} .st36{fill:#2E3083;} .st37{fill:#222323;} .st38{fill:#231F20;} .st39{fill:#222255;} .st40{fill:#FFFFFF;} .st41{clip-path:url(#SVGID_12_);fill:#C09980;} .st42{clip-path:url(#SVGID_14_);fill:#C09980;} .st43{fill:#2A1F17;} .st44{fill:none;stroke:#231F20;stroke-width:0.5;stroke-miterlimit:10;} .st45{fill:#473325;} .st46{fill:#ED827C;} .st47{fill:#181818;} .st48{fill:#191818;} .st49{fill:#857095;} .st50{fill:#718FAF;} .st51{fill:#DEDEEF;} .st52{clip-path:url(#SVGID_16_);fill:#C09980;} .st53{clip-path:url(#SVGID_18_);fill:#C09980;} .st54{clip-path:url(#SVGID_20_);fill:#C09980;} .st55{fill:#AE7546;} .st56{fill:#CD926B;} .st57{fill:#563B20;} .st58{fill:#935D34;} .st59{fill:#332214;} .st60{fill:#DCAE8F;} .st61{fill:#267138;} .st62{fill:#F6ED83;} .st63{fill:#E77C7C;} .st64{fill:#694A25;} .st65{fill:#2B0F0F;} .st66{clip-path:url(#SVGID_22_);fill:#C09980;} .st67{fill:#C76A6F;} .st68{fill:#28160E;} .st69{fill:#3E2116;} .st70{fill:#27160F;} .st71{fill:#16374B;} .st72{fill:#4E1123;} .st73{clip-path:url(#SVGID_24_);fill:#C09980;} .st74{fill:#F7DF2F;} .st75{fill:#7C712D;} .st76{fill:#455BA8;} .st77{fill:#E1CF2A;} .st78{fill:#494A7D;} .st79{fill:#1E2859;} .st80{fill:#483417;} .st81{fill:#E6E7E8;} .st82{fill:#965458;} .st83{clip-path:url(#SVGID_26_);fill:#C09980;} .st84{fill:#DDDDDC;} .st85{fill:#7D494E;} .st86{fill:#182121;} .st87{clip-path:url(#SVGID_32_);fill:#C09980;} .st88{clip-path:url(#SVGID_38_);fill:#C09980;} .st89{fill:#D6868D;} .st90{fill:#0D0D10;} .st91{fill:#865823;} .st92{clip-path:url(#SVGID_40_);fill:#C09980;} .st93{fill:#B7854E;} .st94{fill:#A06D38;} .st95{fill:#44803C;} .st96{fill:#366933;} .st97{fill:#EADE59;} .st98{fill:#DFCF3F;} .st99{fill:#C52026;} .st100{clip-path:url(#SVGID_42_);fill:#C09980;} .st101{fill:#D3D3D3;} .st102{fill:#EFEFEF;} .st103{fill:#EDC01B;} .st104{clip-path:url(#SVGID_44_);fill:#C09980;} .st105{fill:#F1D0B3;} .st106{fill:#5AACC4;} .st107{fill:#3A4D80;} .st108{fill:#4A484A;} .st109{clip-path:url(#SVGID_46_);fill:#C09980;} .st110{fill:#F1F1F2;} .st111{clip-path:url(#SVGID_48_);fill:#C09980;} .st112{clip-path:url(#SVGID_50_);fill:#C09980;} .st113{fill:#2D3518;} .st114{fill:#1C263F;} .st115{clip-path:url(#SVGID_52_);fill:#C09980;} .st116{fill:#774C1E;} .st117{fill:#864F21;} .st118{fill:#174F3E;} .st119{fill:#103529;} .st120{fill:#FFF5F0;} .st121{fill:#606060;} .st122{fill:#393C3D;} .st123{fill:#DDB58E;} .st124{fill:#E0605C;}</style><path class="st93" d="M17.6 43.1v4.5c0 .6-1 .5-2.3-.2S13 45.5 13 44.9v-4.5l4.6 2.7z"/><path class="st94" d="M17.6 40.4v4.5c0 .6-1 .5-2.3-.2S13 42.8 13 42.2v-4.5l4.6 2.7z"/><path class="st95" d="M2.3 30.5c0-2.4 13-15.2 13-15.2s13 27.7 13 30.2c0 2.4-5.8 1.1-13-3.1-7.2-4.1-13-9.4-13-11.9z"/><path class="st95" d="M5.3 21.3c0-1.9 10-11.7 10-11.7s10 21.4 10 23.2c0 1.9-4.5.8-10-2.4s-10-7.2-10-9.1z"/><path class="st96" d="M17.3 19.7c1.9 4 4.6 10.1 6.9 15.4 0 0-5.3 4.5-21.9-4.7.2-2 7.3-9.4 10.9-13.1l4.1 2.4z"/><path class="st95" d="M25.2 32.8c0 1.9-4.5.8-10-2.4s-10-7.3-10-9.2c9.3 4.7 14.6 4.7 17.1 4.1 1.7 3.8 2.9 6.9 2.9 7.5z"/><path class="st96" d="M15.2 9.6s4.2 9 7.1 15.8c-2.6.6-7.8.6-17.1-4.1.1-1.9 10-11.7 10-11.7z"/><path class="st95" d="M8.1 13.7c0-1.3 7.1-8.4 7.1-8.4s7.1 15.3 7.1 16.6c0 1.3-3.2.6-7.1-1.7-3.9-2.2-7.1-5.2-7.1-6.5z"/><path class="st96" d="M17.6 10.4c-1 .4-2.7.4-4.7.1-.7-.1-1.4-.3-2.1-.5 2-2.3 4.5-4.7 4.5-4.7s1 2.3 2.3 5.1z"/><path class="st97" d="M19 14.9c0 .4.3 1 .8 1.2.4.2.8.1.8-.3s-.3-1-.8-1.2c-.4-.3-.8-.1-.8.3zM21.6 24.9c0 .4.3 1 .8 1.2.4.2.8.1.8-.3s-.3-1-.8-1.2c-.4-.3-.8-.1-.8.3zM23.4 34.6c0 .4.3 1 .8 1.2.4.2.8.1.8-.3s-.3-1-.8-1.2c-.4-.2-.8-.1-.8.3zM21.3 35.7c0 .4.3 1 .8 1.2.4.2.8.1.8-.3s-.3-1-.8-1.2c-.5-.2-.8-.1-.8.3zM18.6 35.7c0 .4.3 1 .8 1.2.4.2.8.1.8-.3s-.3-1-.8-1.2c-.5-.2-.8-.1-.8.3zM15.6 35.7c0 .4.3 1 .8 1.2.4.2.8.1.8-.3s-.3-1-.8-1.2c-.5-.2-.8-.1-.8.3zM12.1 34.5c0 .4.3 1 .8 1.2s.8.1.8-.3-.3-1-.8-1.2c-.4-.2-.8-.1-.8.3zM8.9 33.5c0 .4.3 1 .8 1.2.4.2.8.1.8-.3s-.3-1-.8-1.2c-.5-.3-.8-.2-.8.3zM5.3 32c0 .4.3 1 .8 1.2.4.2.8.1.8-.3s-.3-1-.8-1.2c-.5-.3-.8-.2-.8.3zM1.7 29.9c0 .4.3 1 .8 1.2.4.2.8.1.8-.3s-.3-1-.8-1.2c-.4-.3-.8-.1-.8.3zM19.3 25.2c0 .4.3 1 .8 1.2.4.2.8.1.8-.3s-.3-1-.8-1.2c-.4-.3-.8-.2-.8.3zM16.7 25c0 .4.3 1 .8 1.2s.8.1.8-.3-.3-1-.8-1.2-.8-.1-.8.3zM13.7 24.4c0 .4.3 1 .8 1.2.4.2.8.1.8-.3s-.3-1-.8-1.2c-.5-.2-.8-.1-.8.3zM10.8 23.6c0 .4.3 1 .8 1.2.4.2.8.1.8-.3s-.3-1-.8-1.2c-.4-.3-.8-.2-.8.3zM7.6 22.2c0 .4.3 1 .8 1.2.4.2.8.1.8-.3s-.3-1-.8-1.2c-.5-.3-.8-.1-.8.3zM4.8 20.9c0 .4.3 1 .8 1.2.4.2.8.1.8-.3s-.3-1-.8-1.2c-.4-.3-.8-.2-.8.3zM16.5 15c0 .4.3 1 .8 1.2.4.2.8.1.8-.3s-.3-1-.8-1.2c-.4-.3-.8-.1-.8.3zM14 15.1c0 .4.3 1 .8 1.2.4.2.8.1.8-.3s-.3-1-.8-1.2c-.5-.3-.8-.2-.8.3zM11.1 14c0 .4.3 1 .8 1.2.4.2.8.1.8-.3s-.3-1-.8-1.2c-.4-.3-.8-.1-.8.3zM8.3 12.6c0 .4.3 1 .8 1.2.4.2.8.1.8-.3s-.3-1-.8-1.2c-.4-.3-.8-.2-.8.3z"/><g><path class="st97" d="M15.3 1.3l1.2 3.4 2.9 2.1-2.1.8.5 3.1-2.6-2.8V1.4z"/><path class="st98" d="M12.6 7.7l.6-2.6-2.1-3.2L14 3.2l1.2-1.8v6.5z"/></g></svg>