<svg id="Layer_1" xmlns="http://www.w3.org/2000/svg" viewBox="0 0 36 47.1"><style>.st0{fill:#E1BE9B;} .st1{fill:#F1D1AC;} .st2{clip-path:url(#SVGID_2_);fill:#C09980;} .st3{fill:#D3A788;} .st4{fill:#C09980;} .st5{fill:#2CABE1;} .st6{fill:#070707;} .st7{fill:#F9F9F9;} .st8{fill:#DFB79A;} .st9{fill:#414141;} .st10{clip-path:url(#SVGID_4_);fill:#C09980;} .st11{fill:#E2E2E2;} .st12{fill:#AD2130;} .st13{fill:#371E14;} .st14{fill:#22120C;} .st15{fill:#050505;} .st16{fill:#404041;} .st17{opacity:0.7;fill:#C09980;} .st18{fill:#F5EFD6;} .st19{fill:#1F1F33;} .st20{fill:none;} .st21{fill:#1A1A1A;} .st22{fill:#928C44;} .st23{fill:#C6696F;} .st24{fill:#D87374;} .st25{fill:#5C4C52;} .st26{fill:#FFF100;} .st27{clip-path:url(#SVGID_6_);fill:#C09980;} .st28{fill:#462E16;} .st29{fill:#2B2829;} .st30{clip-path:url(#SVGID_8_);fill:#C09980;} .st31{fill:#432612;} .st32{fill:#502C15;} .st33{fill:#383838;} .st34{fill:#6B6B6B;} .st35{clip-path:url(#SVGID_10_);fill:#C09980;} .st36{fill:#2E3083;} .st37{fill:#222323;} .st38{fill:#231F20;} .st39{fill:#222255;} .st40{fill:#FFFFFF;} .st41{clip-path:url(#SVGID_12_);fill:#C09980;} .st42{clip-path:url(#SVGID_14_);fill:#C09980;} .st43{fill:#2A1F17;} .st44{fill:none;stroke:#231F20;stroke-width:0.5;stroke-miterlimit:10;} .st45{fill:#473325;} .st46{fill:#ED827C;} .st47{fill:#181818;} .st48{fill:#191818;} .st49{fill:#857095;} .st50{fill:#718FAF;} .st51{fill:#DEDEEF;} .st52{clip-path:url(#SVGID_16_);fill:#C09980;} .st53{clip-path:url(#SVGID_18_);fill:#C09980;} .st54{clip-path:url(#SVGID_20_);fill:#C09980;} .st55{fill:#AE7546;} .st56{fill:#CD926B;} .st57{fill:#563B20;} .st58{fill:#935D34;} .st59{fill:#332214;} .st60{fill:#DCAE8F;} .st61{fill:#267138;} .st62{fill:#F6ED83;} .st63{fill:#E77C7C;} .st64{fill:#694A25;} .st65{fill:#2B0F0F;} .st66{clip-path:url(#SVGID_22_);fill:#C09980;} .st67{fill:#C76A6F;} .st68{fill:#28160E;} .st69{fill:#3E2116;} .st70{fill:#27160F;} .st71{fill:#16374B;} .st72{fill:#4E1123;} .st73{clip-path:url(#SVGID_24_);fill:#C09980;} .st74{fill:#F7DF2F;} .st75{fill:#7C712D;} .st76{fill:#455BA8;} .st77{fill:#E1CF2A;} .st78{fill:#494A7D;} .st79{fill:#1E2859;} .st80{fill:#483417;} .st81{fill:#E6E7E8;} .st82{fill:#965458;} .st83{clip-path:url(#SVGID_26_);fill:#C09980;} .st84{fill:#DDDDDC;} .st85{fill:#7D494E;} .st86{fill:#182121;} .st87{clip-path:url(#SVGID_32_);fill:#C09980;} .st88{clip-path:url(#SVGID_38_);fill:#C09980;} .st89{fill:#D6868D;} .st90{fill:#0D0D10;} .st91{fill:#865823;} .st92{clip-path:url(#SVGID_40_);fill:#C09980;} .st93{fill:#B7854E;} .st94{fill:#A06D38;} .st95{fill:#44803C;} .st96{fill:#366933;} .st97{fill:#EADE59;} .st98{fill:#DFCF3F;} .st99{fill:#C52026;} .st100{clip-path:url(#SVGID_42_);fill:#C09980;} .st101{fill:#D3D3D3;} .st102{fill:#EFEFEF;} .st103{fill:#EDC01B;} .st104{clip-path:url(#SVGID_44_);fill:#C09980;} .st105{fill:#F1D0B3;} .st106{fill:#5AACC4;} .st107{fill:#3A4D80;} .st108{fill:#4A484A;} .st109{clip-path:url(#SVGID_46_);fill:#C09980;} .st110{fill:#F1F1F2;} .st111{clip-path:url(#SVGID_48_);fill:#C09980;} .st112{clip-path:url(#SVGID_50_);fill:#C09980;} .st113{fill:#2D3518;} .st114{fill:#1C263F;} .st115{clip-path:url(#SVGID_52_);fill:#C09980;} .st116{fill:#774C1E;} .st117{fill:#864F21;} .st118{fill:#174F3E;} .st119{fill:#103529;} .st120{fill:#FFF5F0;} .st121{fill:#606060;} .st122{fill:#393C3D;} .st123{fill:#DDB58E;} .st124{fill:#E0605C;}</style><path class="st43" d="M19.9 20.3c-1.3.8-2.6 2.2-3.5 4-1-1-2.4-1.2-3.9-.3-3 1.7-5.5 6.8-5.5 11.3 0 4.5 2.4 6.8 5.4 5.1 1.3-.8 2.6-2.2 3.5-4 1 1 2.4 1.2 3.9.3 3-1.7 5.4-6.8 5.4-11.3 0-4.5-2.4-6.8-5.3-5.1z"/><path class="st1" d="M25.2 36.4l-.2.2-8.6 5V25.8c.9-.5 2.1-1.3 2.1-1.3 0 1 0 2 .1 2.9v.7c0 .2.1.4.1.6 0 .1 0 .2.1.3 0 .2.1.3.1.4.2.5.4.8.7.8h.1c.1 0 .1 0 .2-.1 0 0 .4-.2.9-.3.3-.1.7-.1 1.1 0 .3 0 .7.1 1.1.3.3.2.6.4.8.7.3.4.6.9.9 1.6.2.5.3 1.2.4 1.9v.3c.1.8.1 1.3.1 1.8z"/><path class="st17" d="M18.8 28.8c-.2.5-.9 1.8-2.4 2.7-1.4.8-2.2.2-2.4.1 0-.3.1-.6.1-1 0-.2 0-.4.1-.6.7-.2 1.4-.5 2.2-1 .8-.5 1.5-1 2.2-1.6 0 .2 0 .4.1.5.1.4.1.7.1.9z"/><path class="st3" d="M16.5 9c-8.9 5.1-9 12.3-8.6 16.8-.6-.7-2.4.7-2.3 2.4.1 1.6 2.7.9 2.7.7.7 3.4 4.9 3.1 8.2 1.5h.1c-.1-7.2-.1-14.4-.1-21.4 0-.1 0-.1 0 0z"/><path class="st4" d="M6.1 27.1c.4-.9 1.1-1 1.3-1 .2.1.3.2.2.7-.1.3-.3.4-.3.7.1.3.3.3.4.3.1 0 .2 0 .3.1.1.1.1.3 0 .5-.1.3-.5.3-.8.4-.2 0-.8-.1-.9-.2-.4-.2-.5-.9-.2-1.5z"/><path class="st8" d="M16.5 8.9c8.9-5.2 9 2 8.6 6.9.6-1.4 2.4-2.1 2.3-.2-.1 1.8-2.7 4-2.7 3.8-.7 4.2-4.9 8.8-8.2 10.9h-.1c0-7.1 0-14.2.1-21.4 0 .1 0 0 0 0z"/><path class="st4" d="M27 15c-.4-.4-1.1.3-1.3.5-.2.3-.3.6-.2.9.1.2.3.1.3.4-.1.4-.3.6-.4.7-.1.1-.2.3-.3.5-.1.2-.1.4 0 .5.1.2.5-.2.8-.5.2-.2.8-1 .9-1.3.3-.5.5-1.4.2-1.7z"/><path class="st0" d="M16.4 11c-3 1.7-5.2 3.8-6.5 6.2-1.8 3.3-1.8 6.7-1.1 8.8.2.6.3 2.6.5 3.3.6 3 4.5 2.5 7.1 1h.1L16.4 11c.1 0 0 0 0 0z"/><path class="st1" d="M22.9 9.7c-1.3-.9-3.5-.4-6.4 1.2v19.3c2.9-1.7 6.4-5.7 7-9.2.1-.8.2-2.9.5-3.8.6-2.8.7-6.3-1.1-7.5z"/><path class="st23" d="M18 26.4s-.7 1.1-1.5 1.6-1.5.1-1.5.1.6-.5 1.5-1c.8-.4 1.5-.7 1.5-.7z"/><path class="st24" d="M16.9 26.7c-.2.1-.4.4-.4.6 0-.2-.2-.2-.4-.1s-1.1 1-1.1 1 .8-.4 1.1-.5c.2-.1.4-.2.4-.3 0 .2.2 0 .4-.1s1.1-.7 1.1-.7-.9 0-1.1.1z"/><path class="st44" d="M16.6 33.2v8.3"/><path class="st15" d="M22 30.1l-11 6.3c.5-.6 1-1.1 1.3-1.4.1-.4.4-1.1.8-1.9l5.9-3.4c.2.5.4.8.7.8h.1c.1 0 .1 0 .2-.1 0 0 .2-.1.6-.2.1 0 .2-.1.3-.1.3-.1.7-.1 1.1 0z"/><path class="st20" d="M25.1 34.6l-17.3 10c0-.5.1-1 .2-1.5.1-.3.1-.6.2-.9l16.6-9.6c.1.6.3 1.3.3 2z"/><path class="st18" d="M25.2 34.9v-.3c-.1-.8-.2-1.4-.4-1.9-.2-.7-.5-1.2-.9-1.6-.3-.3-.6-.5-.8-.7-.4-.2-.7-.3-1.1-.3h-1.1c-.5.1-.9.3-.9.3-.1 0-.1.1-.2.1h-.1c-.3 0-1-1.1-1-1.3 0 0-.1 0-.1.1-.9.6-1.6 1.1-2 1.2 0 0-.1 0-.1.1l-2 .8c-.1 0-.2 0-.3.1h-.3s0 .2-.5 1.2c-.1.2-.2.3-.2.5-.4.8-.7 1.5-.8 1.9l-.4.4-.2.2s-.1.1-.1.2l-.2.2c-.1.1-.2.3-.4.4-.1.1-.2.3-.3.4l-.2.2-.1.1c-.1.1-.2.3-.3.4-.1.1-.2.2-.2.4l-.1.1c-.1.1-.1.3-.2.4 0 0 0 .1-.1.1-.1.2-.2.3-.2.5-.3.6-.5 1.2-.7 1.8v.1c-.2.5-.3 1.1-.5 1.7 0 .2-.1.4-.1.6 0 .2-.1.5-.1.8 0 .2 0 .4-.1.5v2.1h.2l-.1-.3 2.1-1.2 2.1-1.2 2.1-1.2 2-1.2.1-.1 2.1-1.2 2.1-1.2 2.1-1.2 2-1.2.1-.1.1-.1c.3-.6.3-1.1.3-1.6z"/><path class="st45" d="M17.1 35.9c0 .4-.3.9-.7 1.1-.4.2-.7.1-.7-.3s.3-.9.7-1.1c.3-.2.7-.1.7.3zM17.1 39.1c0 .4-.3.9-.7 1.1-.4.2-.7.1-.7-.3s.3-.9.7-1.1c.3-.2.7-.1.7.3z"/><path class="st46" d="M20.6 30.2v.1c-.1.2-.3.6-.7 1-.7.9-2 2-3.2 2.8l-.1.1c-.7.4-1.4.7-2 .8-.7.1-1.1.2-1.5.2h-.7c-.2 0-.1-.1-.1-.1s0-.1.1-.2c.1-.4.4-1.1.8-1.9.1-.2.2-.3.2-.5.5-1 .5-1.2.5-1.2h.3c.1 0 .2 0 .3-.1.4-.1 1.1-.3 2-.8 0 0 .1 0 .1-.1.7-.3 1.4-.8 2.3-1.4.1-.1.3-.2.5-.3l.6.4c.3.4.6.7.6 1.2z"/><path class="st47" d="M31 9.2c0-.6-.6-.8-1.2-.4-.1 0-.1.1-.2.1.8-.9 1.4-2 1.4-2.9 0-.8-.4-1.2-1.1-1.2.1-.3.1-.5.1-.8 0-1-.8-1.5-1.7-.9-.1.1-.3.2-.4.3l-.2-.2c.1-.3.1-.5.1-.8 0-1.4-.9-2-2.1-1.3-.3.2-.6.4-.8.7C24.7.6 23.7.3 22.5 1c-.5.3-1 .7-1.4 1.3-.4 0-1 .1-1.6.5-.6.2-1.1.6-1.5 1.1-.4-.4-1-.4-1.7-.2-.7.6-1.4 1.4-1.7 2.2-.4 0-.9.1-1.5.5s-1.2.8-1.6 1.4c-.4-.1-.9 0-1.4.3-1.2.7-2.2 2.3-2.4 3.6-.3 0-.5.1-.8.3-1.2.7-2.1 2.3-2.1 3.7 0 .3 0 .5.1.7-.1.1-.1.3-.2.4-.1 0-.3.1-.4.2-.9.5-1.7 1.8-1.7 2.9 0 .3 0 .5.1.7-.7.7-1.1 1.6-1.1 2.4 0 .9.6 1.3 1.4 1.2-.1 0-.1 0-.2.1-.7.4-1.2 1.2-1.2 1.9 0 .5.3.7.8.6-.5.5-.8 1.2-.8 1.7s.4.8.9.7c-.3.3-.5.7-.5 1 0 .6.6.7 1.2.3.1 0 .1-.1.2-.1-.1.2-.2.5-.2.7 0 .7.5.9 1.2.7.1 1 .2 1.8.2 2.3 0 3 .1 4.1.5 6.1.9 4.2.1 6.3.1 6.3s.7-1 1.2-2.1c.5 1.7 2.8.9 2.8.9s-1.7-1-.4-4c.1-.1.1-.3.1-.4 1.1.4 2.5.3 2.5.3s-3.5-2-3.2-9.4c0-.4.1-.9.2-1.4.1-.1.2-.2.3-.2l-.2-.2c.5-2.3 1.7-5.4 2.9-7.9 0 0 2.3-2.4 4.4-5.6.8-1.3 1-2.7 1-3.3 0 .6 0 1.9-.3 2.8-.6 2.1-1.2 3.2-1.2 3.2s1.4-1.6 2.1-3.2c.9-2.1 1-3.2 1-3.2v1.9c0 1.7-1.1 3.8-1.1 3.8s1.1-1.2 2.1-2.9c.4-.8.5-1 .6-1.5v.3c0 1.4-1 3.2-1 3.2s.8-.9 1.3-1.6c.8-1.1.9-1.7 1-1.9 0 .2-.1.6-.1.9-.2.9-.6 1.8-.6 1.8s.5-.1 1.4-1.5c.3-.4.7-1.3.7-1.3s1.5 3.4 1.7 4.4c.1.5-.1 1.9-.2 3.1v.1c-.1.9-.3 1.6-.3 1.7-.1.2-.7 3.9-.7 4.4-.1 3.7-1.8 7.1-1.8 7.1s1-1.3 1.9-3.4c.2 1 .7 2.4.9 2.9.3 1.1-.8 3.5-.8 3.5s.8-.9 1.4-2.6c.3-.7.4-1.2.6-1.7 0 .1 0 .3.1.4.2 1.1 1.5 1 1.5 1s-.7-.7-.7-3c0-1 1.5-5.2 1.6-6.8.1-1.4-.2-2.6-.4-3.1.2.5.5 1.4.6 1.7.1.5 1.5 2.2 1.1 1.4-.3-.6-.5-3.4-.6-6.8.7-.6 1.2-1.4 1.2-2.1 0-.2-.1-.4-.2-.5.1 0 .1 0 .2-.1.7-.4 1.2-1.2 1.2-1.8 0-.3-.2-.5-.5-.5.5-.6.9-1.2.9-1.8 0-.5-.3-.8-.8-.8 0-.5.4-1 .4-1.5zM11.5 21.8c0-.1.1-.2.1-.2l-.1.2z"/><g><path class="st43" d="M19.9 20.3c-1.3.8-2.6 2.2-3.5 4-1-1-2.4-1.2-3.9-.3-3 1.7-5.5 6.8-5.5 11.3 0 4.5 2.4 6.8 5.4 5.1 1.3-.8 2.6-2.2 3.5-4 1 1 2.4 1.2 3.9.3 3-1.7 5.4-6.8 5.4-11.3 0-4.5-2.4-6.8-5.3-5.1z"/><path class="st1" d="M25.2 36.4l-.2.2-8.6 5V25.8c.9-.5 2.1-1.3 2.1-1.3 0 1 0 2 .1 2.9v.7c0 .2.1.4.1.6 0 .1 0 .2.1.3 0 .2.1.3.1.4.2.5.4.8.7.8h.1c.1 0 .1 0 .2-.1 0 0 .4-.2.9-.3.3-.1.7-.1 1.1 0 .3 0 .7.1 1.1.3.3.2.6.4.8.7.3.4.6.9.9 1.6.2.5.3 1.2.4 1.9v.3c.1.8.1 1.3.1 1.8z"/><path class="st17" d="M18.8 28.8c-.2.5-.9 1.8-2.4 2.7-1.4.8-2.2.2-2.4.1 0-.3.1-.6.1-1 0-.2 0-.4.1-.6.7-.2 1.4-.5 2.2-1 .8-.5 1.5-1 2.2-1.6 0 .2 0 .4.1.5.1.4.1.7.1.9z"/><path class="st3" d="M16.5 9c-8.9 5.1-9 12.3-8.6 16.8-.6-.7-2.4.7-2.3 2.4.1 1.6 2.7.9 2.7.7.7 3.4 4.9 3.1 8.2 1.5h.1c-.1-7.2-.1-14.4-.1-21.4 0-.1 0-.1 0 0z"/><path class="st4" d="M6.1 27.1c.4-.9 1.1-1 1.3-1 .2.1.3.2.2.7-.1.3-.3.4-.3.7.1.3.3.3.4.3.1 0 .2 0 .3.1.1.1.1.3 0 .5-.1.3-.5.3-.8.4-.2 0-.8-.1-.9-.2-.4-.2-.5-.9-.2-1.5z"/><path class="st8" d="M16.5 8.9c8.9-5.2 9 2 8.6 6.9.6-1.4 2.4-2.1 2.3-.2-.1 1.8-2.7 4-2.7 3.8-.7 4.2-4.9 8.8-8.2 10.9h-.1c0-7.1 0-14.2.1-21.4 0 .1 0 0 0 0z"/><path class="st4" d="M27 15c-.4-.4-1.1.3-1.3.5-.2.3-.3.6-.2.9.1.2.3.1.3.4-.1.4-.3.6-.4.7-.1.1-.2.3-.3.5-.1.2-.1.4 0 .5.1.2.5-.2.8-.5.2-.2.8-1 .9-1.3.3-.5.5-1.4.2-1.7z"/><path class="st0" d="M16.4 11c-3 1.7-5.2 3.8-6.5 6.2-1.8 3.3-1.8 6.7-1.1 8.8.2.6.3 2.6.5 3.3.6 3 4.5 2.5 7.1 1h.1L16.4 11c.1 0 0 0 0 0z"/><path class="st1" d="M22.9 9.7c-1.3-.9-3.5-.4-6.4 1.2v19.3c2.9-1.7 6.4-5.7 7-9.2.1-.8.2-2.9.5-3.8.6-2.8.7-6.3-1.1-7.5z"/><path class="st23" d="M18 26.4s-.7 1.1-1.5 1.6-1.5.1-1.5.1.6-.5 1.5-1c.8-.4 1.5-.7 1.5-.7z"/><path class="st24" d="M16.9 26.7c-.2.1-.4.4-.4.6 0-.2-.2-.2-.4-.1s-1.1 1-1.1 1 .8-.4 1.1-.5c.2-.1.4-.2.4-.3 0 .2.2 0 .4-.1s1.1-.7 1.1-.7-.9 0-1.1.1z"/><path class="st44" d="M16.6 33.2v8.3"/><path class="st15" d="M22 30.1l-11 6.3c.5-.6 1-1.1 1.3-1.4.1-.4.4-1.1.8-1.9l5.9-3.4c.2.5.4.8.7.8h.1c.1 0 .1 0 .2-.1 0 0 .2-.1.6-.2.1 0 .2-.1.3-.1.3-.1.7-.1 1.1 0z"/><path class="st20" d="M25.1 34.6l-17.3 10c0-.5.1-1 .2-1.5.1-.3.1-.6.2-.9l16.6-9.6c.1.6.3 1.3.3 2z"/><path class="st18" d="M25.2 34.9v-.3c-.1-.8-.2-1.4-.4-1.9-.2-.7-.5-1.2-.9-1.6-.3-.3-.6-.5-.8-.7-.4-.2-.7-.3-1.1-.3h-1.1c-.5.1-.9.3-.9.3-.1 0-.1.1-.2.1h-.1c-.3 0-1-1.1-1-1.3 0 0-.1 0-.1.1-.9.6-1.6 1.1-2 1.2 0 0-.1 0-.1.1l-2 .8c-.1 0-.2 0-.3.1h-.3s0 .2-.5 1.2c-.1.2-.2.3-.2.5-.4.8-.7 1.5-.8 1.9l-.4.4-.2.2s-.1.1-.1.2l-.2.2c-.1.1-.2.3-.4.4-.1.1-.2.3-.3.4l-.2.2-.1.1c-.1.1-.2.3-.3.4-.1.1-.2.2-.2.4l-.1.1c-.1.1-.1.3-.2.4 0 0 0 .1-.1.1-.1.2-.2.3-.2.5-.3.6-.5 1.2-.7 1.8v.1c-.2.5-.3 1.1-.5 1.7 0 .2-.1.4-.1.6 0 .2-.1.5-.1.8 0 .2 0 .4-.1.5v2.1h.2l-.1-.3 2.1-1.2 2.1-1.2 2.1-1.2 2-1.2.1-.1 2.1-1.2 2.1-1.2 2.1-1.2 2-1.2.1-.1.1-.1c.3-.6.3-1.1.3-1.6z"/><path class="st45" d="M17.1 35.9c0 .4-.3.9-.7 1.1-.4.2-.7.1-.7-.3s.3-.9.7-1.1c.3-.2.7-.1.7.3zM17.1 39.1c0 .4-.3.9-.7 1.1-.4.2-.7.1-.7-.3s.3-.9.7-1.1c.3-.2.7-.1.7.3z"/><path class="st46" d="M20.6 30.2v.1c-.1.2-.3.6-.7 1-.7.9-2 2-3.2 2.8l-.1.1c-.7.4-1.4.7-2 .8-.7.1-1.1.2-1.5.2h-.7c-.2 0-.1-.1-.1-.1s0-.1.1-.2c.1-.4.4-1.1.8-1.9.1-.2.2-.3.2-.5.5-1 .5-1.2.5-1.2h.3c.1 0 .2 0 .3-.1.4-.1 1.1-.3 2-.8 0 0 .1 0 .1-.1.7-.3 1.4-.8 2.3-1.4.1-.1.3-.2.5-.3l.6.4c.3.4.6.7.6 1.2z"/></g><path class="st47" d="M31 9.2c0-.6-.6-.8-1.2-.4-.1 0-.1.1-.2.1.8-.9 1.4-2 1.4-2.9 0-.8-.4-1.2-1.1-1.2.1-.3.1-.5.1-.8 0-1-.8-1.5-1.7-.9-.1.1-.3.2-.4.3l-.2-.2c.1-.3.1-.5.1-.8 0-1.4-.9-2-2.1-1.3-.3.2-.6.4-.8.7C24.7.6 23.7.3 22.5 1c-.5.3-1 .7-1.4 1.3-.4 0-1 .1-1.6.5-.6.2-1.1.6-1.5 1.1-.4-.4-1-.4-1.7-.2-.7.6-1.4 1.4-1.7 2.2-.4 0-.9.1-1.5.5s-1.2.8-1.6 1.4c-.4-.1-.9 0-1.4.3-1.2.7-2.2 2.3-2.4 3.6-.3 0-.5.1-.8.3-1.2.7-2.1 2.3-2.1 3.7 0 .3 0 .5.1.7-.1.1-.1.3-.2.4-.1 0-.3.1-.4.2-.9.5-1.7 1.8-1.7 2.9 0 .3 0 .5.1.7-.7.7-1.1 1.6-1.1 2.4 0 .9.6 1.3 1.4 1.2-.1 0-.1 0-.2.1-.7.4-1.2 1.2-1.2 1.9 0 .5.3.7.8.6-.5.5-.8 1.2-.8 1.7s.4.8.9.7c-.3.3-.5.7-.5 1 0 .6.6.7 1.2.3.1 0 .1-.1.2-.1-.1.2-.2.5-.2.7 0 .7.5.9 1.2.7.1 1 .2 1.8.2 2.3 0 3 .1 4.1.5 6.1.9 4.2.1 6.3.1 6.3s.7-1 1.2-2.1c.5 1.7 2.8.9 2.8.9s-1.7-1-.4-4c.1-.1.1-.3.1-.4 1.1.4 2.5.3 2.5.3s-3.5-2-3.2-9.4c0-.4.1-.9.2-1.4.1-.1.2-.2.3-.2l-.2-.2c.5-2.3 1.7-5.4 2.9-7.9 0 0 2.3-2.4 4.4-5.6.8-1.3 1-2.7 1-3.3 0 .6 0 1.9-.3 2.8-.6 2.1-1.2 3.2-1.2 3.2s1.4-1.6 2.1-3.2c.9-2.1 1-3.2 1-3.2v1.9c0 1.7-1.1 3.8-1.1 3.8s1.1-1.2 2.1-2.9c.4-.8.5-1 .6-1.5v.3c0 1.4-1 3.2-1 3.2s.8-.9 1.3-1.6c.8-1.1.9-1.7 1-1.9 0 .2-.1.6-.1.9-.2.9-.6 1.8-.6 1.8s.5-.1 1.4-1.5c.3-.4.7-1.3.7-1.3s1.5 3.4 1.7 4.4c.1.5-.1 1.9-.2 3.1v.1c-.1.9-.3 1.6-.3 1.7-.1.2-.7 3.9-.7 4.4-.1 3.7-1.8 7.1-1.8 7.1s1-1.3 1.9-3.4c.2 1 .7 2.4.9 2.9.3 1.1-.8 3.5-.8 3.5s.8-.9 1.4-2.6c.3-.7.4-1.2.6-1.7 0 .1 0 .3.1.4.2 1.1 1.5 1 1.5 1s-.7-.7-.7-3c0-1 1.5-5.2 1.6-6.8.1-1.4-.2-2.6-.4-3.1.2.5.5 1.4.6 1.7.1.5 1.5 2.2 1.1 1.4-.3-.6-.5-3.4-.6-6.8.7-.6 1.2-1.4 1.2-2.1 0-.2-.1-.4-.2-.5.1 0 .1 0 .2-.1.7-.4 1.2-1.2 1.2-1.8 0-.3-.2-.5-.5-.5.5-.6.9-1.2.9-1.8 0-.5-.3-.8-.8-.8 0-.5.4-1 .4-1.5zM11.5 21.8c0-.1.1-.2.1-.2l-.1.2z"/></svg>